<svg xmlns="http://www.w3.org/2000/svg" version="1.1" xmlns:xlink="http://www.w3.org/1999/xlink" xmlns:svgjs="http://svgjs.com/svgjs" width="375" height="812" preserveAspectRatio="none" viewBox="0 0 375 812"><g mask="url(&quot;#SvgjsMask1046&quot;)" fill="none"><rect width="375" height="812" x="0" y="0" fill="url(#SvgjsLinearGradient1047)"></rect><path d="M0 0L101.55 0L0 235.93z" fill="rgba(255, 255, 255, .1)"></path><path d="M0 235.93L101.55 0L147.4 0L0 355.08000000000004z" fill="rgba(255, 255, 255, .075)"></path><path d="M0 355.08000000000004L147.4 0L225.85000000000002 0L0 554.6300000000001z" fill="rgba(255, 255, 255, .05)"></path><path d="M0 554.6300000000001L225.85000000000002 0L294.52000000000004 0L0 690.4600000000002z" fill="rgba(255, 255, 255, .025)"></path><path d="M375 812L369.41 812L375 466.74z" fill="rgba(0, 0, 0, .1)"></path><path d="M375 466.74L369.41 812L321.79 812L375 234.01000000000002z" fill="rgba(0, 0, 0, .075)"></path><path d="M375 234.01L321.79 812L284.86 812L375 145.70999999999998z" fill="rgba(0, 0, 0, .05)"></path><path d="M375 145.71000000000004L284.86 812L201.31 812L375 80.68000000000004z" fill="rgba(0, 0, 0, .025)"></path></g><defs><mask id="SvgjsMask1046"><rect width="375" height="812" fill="#ffffff"></rect></mask><linearGradient x1="-29.13%" y1="13.45%" x2="129.13%" y2="86.55%" gradientUnits="userSpaceOnUse" id="SvgjsLinearGradient1047"><stop stop-color="#0e2a47" offset="0"></stop><stop stop-color="#00459e" offset="1"></stop></linearGradient></defs></svg>