<svg width="375" height="812" viewBox="0 0 375 812" fill="none" xmlns="http://www.w3.org/2000/svg">
<path d="M375 0H0V812H375V0Z" fill="url(#paint0_linear_247:3)"/>
<path d="M0 0H101.55L0 235.93V0Z" fill="white" fill-opacity="0.1"/>
<path d="M0 235.93L101.55 0H147.4L0 355.08V235.93Z" fill="white" fill-opacity="0.075"/>
<path d="M0 355.08L147.4 0H225.85L0 554.63V355.08Z" fill="white" fill-opacity="0.05"/>
<path d="M0 554.63L225.85 0H294.52L0 690.46V554.63Z" fill="white" fill-opacity="0.025"/>
<path d="M375 812H369.41L375 466.74V812Z" fill="black" fill-opacity="0.1"/>
<path d="M375 466.74L369.41 812H321.79L375 234.01V466.74Z" fill="black" fill-opacity="0.075"/>
<path d="M375 234.01L321.79 812H284.86L375 145.71V234.01Z" fill="black" fill-opacity="0.05"/>
<path d="M375 145.71L284.86 812H201.31L375 80.6799V145.71Z" fill="black" fill-opacity="0.025"/>
<defs>
<linearGradient id="paint0_linear_247:3" x1="-0.2913" y1="0.1345" x2="1.2913" y2="0.8655" gradientUnits="userSpaceOnUse">
<stop stop-color="#0E2A47"/>
<stop offset="1" stop-color="#00459E"/>
</linearGradient>
</defs>
</svg>
